<svg width="25" height="26" viewBox="0 0 25 26" fill="none" xmlns="http://www.w3.org/2000/svg">
<g clip-path="url(#clip0_1_97)">
<path fill-rule="evenodd" clip-rule="evenodd" d="M2.34375 22.333H23.4375V20.7705H3.125V0.458008H1.5625V21.5518L2.34375 22.333ZM4.6875 18.4268V5.92676L5.46875 5.14551H8.59375L9.375 5.92676V18.4268L8.59375 19.208H5.46875L4.6875 18.4268ZM7.8125 17.6455V6.70801H6.25V17.6455H7.8125ZM17.1875 2.80176V18.4268L17.9688 19.208H21.0938L21.875 18.4268V2.80176L21.0938 2.02051H17.9688L17.1875 2.80176ZM20.3125 3.58301V17.6455H18.75V3.58301H20.3125ZM10.9375 18.4268V9.05176L11.7188 8.27051H14.8438L15.625 9.05176V18.4268L14.8438 19.208H11.7188L10.9375 18.4268ZM14.0625 17.6455V9.83301H12.5V17.6455H14.0625Z" fill="black"/>
</g>
<defs>
<clipPath id="clip0_1_97">
<rect width="25" height="25" fill="white" transform="translate(0 0.458008)"/>
</clipPath>
</defs>
</svg>
