<svg width="25" height="26" viewBox="0 0 25 26" fill="none" xmlns="http://www.w3.org/2000/svg">
<path d="M20.3125 23.8955C22.0384 23.8955 23.4375 22.4964 23.4375 20.7705C23.4375 19.0446 22.0384 17.6455 20.3125 17.6455C18.5866 17.6455 17.1875 19.0446 17.1875 20.7705C17.1875 22.4964 18.5866 23.8955 20.3125 23.8955Z" fill="black"/>
<path d="M7.8125 10.6143H9.375V12.1768H7.8125V10.6143ZM7.8125 14.5205H9.375V16.083H7.8125V14.5205ZM7.8125 18.4268H9.375V19.9893H7.8125V18.4268ZM10.9375 10.6143H17.1875V12.1768H10.9375V10.6143ZM10.9375 14.5205H17.1875V16.083H10.9375V14.5205ZM10.9375 18.4268H14.0625V19.9893H10.9375V18.4268Z" fill="black"/>
<path d="M5.46875 22.333V5.92676H7.8125V8.27051H17.1875V5.92676H19.5312V14.5205H21.0938V5.92676C21.0938 5.51236 20.9291 5.11493 20.6361 4.8219C20.3431 4.52888 19.9457 4.36426 19.5312 4.36426H17.1875V3.58301C17.1875 3.16861 17.0229 2.77118 16.7299 2.47815C16.4368 2.18513 16.0394 2.02051 15.625 2.02051H9.375C8.9606 2.02051 8.56317 2.18513 8.27015 2.47815C7.97712 2.77118 7.8125 3.16861 7.8125 3.58301V4.36426H5.46875C5.05435 4.36426 4.65692 4.52888 4.3639 4.8219C4.07087 5.11493 3.90625 5.51236 3.90625 5.92676V22.333C3.90625 22.7474 4.07087 23.1448 4.3639 23.4379C4.65692 23.7309 5.05435 23.8955 5.46875 23.8955H14.0625V22.333H5.46875ZM9.375 3.58301H15.625V6.70801H9.375V3.58301Z" fill="black"/>
</svg>
