<svg width="40" height="40" viewBox="0 0 40 40" fill="none" xmlns="http://www.w3.org/2000/svg">
<path opacity="0.5" d="M25.2533 15.0534C25.8655 15.6523 26.6389 16.0597 27.4791 16.2259C28.3192 16.3921 29.1895 16.3098 29.9836 15.9891C30.7777 15.6683 31.461 15.1231 31.9501 14.42C32.4391 13.717 32.7126 12.8866 32.7371 12.0306C32.7615 11.1745 32.536 10.3299 32.0879 9.60007C31.6399 8.87023 30.9888 8.28681 30.2143 7.92122C29.4399 7.55562 28.5757 7.4237 27.7274 7.5416C26.8792 7.65949 26.0837 8.02209 25.4383 8.58503C25.7417 9.11836 25.9683 9.70003 26.105 10.315C26.4458 9.83703 26.9311 9.4812 27.4895 9.3C28.0478 9.1188 28.6497 9.12183 29.2062 9.30865C29.7627 9.49547 30.2444 9.85618 30.5803 10.3376C30.9163 10.819 31.0886 11.3956 31.0719 11.9824C31.0553 12.5692 30.8505 13.1351 30.4877 13.5966C30.125 14.0582 29.6236 14.391 29.0573 14.5459C28.4911 14.7008 27.8901 14.6697 27.3429 14.457C26.7958 14.2444 26.3314 13.8616 26.0183 13.365C25.8498 13.9631 25.5919 14.5323 25.2533 15.0534ZM14.5617 8.58336C13.9163 8.02043 13.1208 7.65783 12.2725 7.53993C11.4243 7.42203 10.5601 7.55395 9.78564 7.91955C9.01119 8.28515 8.36012 8.86856 7.91207 9.59841C7.46402 10.3283 7.23844 11.1729 7.26293 12.0289C7.28741 12.885 7.5609 13.7153 8.04993 14.4184C8.53895 15.1214 9.22231 15.6667 10.0164 15.9874C10.8105 16.3081 11.6808 16.3904 12.5209 16.2243C13.361 16.0581 14.1345 15.6506 14.7467 15.0517C14.4088 14.5311 14.1514 13.9625 13.9833 13.365C13.6675 13.8685 13.1963 14.2555 12.6411 14.4675C12.0858 14.6795 11.4766 14.705 10.9056 14.54C10.3346 14.3751 9.83279 14.0288 9.47606 13.5534C9.11933 13.078 8.92706 12.4994 8.92832 11.905C8.92865 11.325 9.11316 10.76 9.45525 10.2916C9.79733 9.82317 10.2793 9.47547 10.8318 9.29861C11.3842 9.12176 11.9785 9.1249 12.529 9.30757C13.0796 9.49024 13.5579 9.84301 13.895 10.315C14.0317 9.69836 14.2583 9.1167 14.5617 8.58336ZM7.83499 17.1617C7.33499 17.295 6.84166 17.4617 6.34999 17.625L5.92666 17.765C5.22674 17.9937 4.5957 18.3949 4.09177 18.9318C3.58784 19.4686 3.22726 20.1237 3.04332 20.8367L2.54666 24.3917C2.35832 25.7517 3.08832 27.1817 4.57999 27.5367C4.99221 27.6378 5.48388 27.735 6.05499 27.8284C6.16311 27.8458 6.2736 27.8417 6.38015 27.8164C6.4867 27.7911 6.58722 27.7451 6.67598 27.6809C6.76474 27.6168 6.83999 27.5358 6.89744 27.4425C6.9549 27.3493 6.99342 27.2456 7.01082 27.1375C7.02822 27.0294 7.02416 26.9189 6.99886 26.8124C6.97356 26.7058 6.92752 26.6053 6.86337 26.5165C6.79922 26.4278 6.71821 26.3525 6.62498 26.2951C6.53175 26.2376 6.42811 26.1991 6.31999 26.1817C5.86513 26.1099 5.41315 26.0209 4.96499 25.915C4.45999 25.795 4.10499 25.2917 4.19832 24.62L4.66999 21.205C4.90499 20.3384 5.56999 19.455 6.44666 19.1667C6.96999 18.995 8.26999 18.75 8.26999 18.75C8.96999 19.1667 9.21999 19.335 9.21999 19.335C9.41792 19.424 9.64273 19.4322 9.84664 19.358C10.0505 19.2838 10.2175 19.1329 10.3119 18.9376C10.4063 18.7422 10.4208 18.5177 10.3523 18.3118C10.2838 18.1059 10.1377 17.9349 9.94499 17.835C9.7761 17.7495 9.61166 17.6584 9.45166 17.5617C8.95666 17.2684 8.48499 16.9884 7.83499 17.1617ZM33.65 17.625C33.1583 17.46 32.6667 17.2967 32.165 17.1617C31.515 16.9884 31.0433 17.2684 30.5483 17.5617C30.3883 17.6584 30.2239 17.7495 30.055 17.835C29.8623 17.9349 29.7162 18.1059 29.6477 18.3118C29.5792 18.5177 29.5937 18.7422 29.6881 18.9376C29.7825 19.1329 29.9494 19.2838 30.1533 19.358C30.3572 19.4322 30.5821 19.424 30.78 19.335C30.78 19.335 31.03 19.1667 31.73 18.75C31.73 18.75 33.03 18.995 33.5533 19.1667C34.43 19.455 35.0933 20.3384 35.33 21.205L35.8017 24.62C35.895 25.2917 35.54 25.795 35.035 25.915C34.6628 26.0061 34.2111 26.095 33.68 26.1817C33.4616 26.2171 33.2663 26.3377 33.1369 26.5171C33.0728 26.606 33.0268 26.7065 33.0016 26.8131C32.9764 26.9197 32.9725 27.0302 32.99 27.1384C33.0075 27.2465 33.0461 27.3501 33.1037 27.4433C33.1612 27.5365 33.2366 27.6174 33.3254 27.6815C33.5048 27.8109 33.7283 27.8637 33.9467 27.8284C34.5155 27.7339 35.0067 27.6367 35.42 27.5367C36.9117 27.1817 37.6417 25.7534 37.4533 24.3917L36.955 20.8367C36.7725 20.1231 36.4124 19.4672 35.9083 18.9301C35.4041 18.3931 34.7723 17.9923 34.0717 17.765L33.65 17.625Z" fill="#2F4D95"/>
<path d="M20 5.41669C18.3424 5.41669 16.7527 6.07517 15.5806 7.24727C14.4085 8.41937 13.75 10.0091 13.75 11.6667C13.75 13.3243 14.4085 14.914 15.5806 16.0861C16.7527 17.2582 18.3424 17.9167 20 17.9167C21.6576 17.9167 23.2473 17.2582 24.4194 16.0861C25.5915 14.914 26.25 13.3243 26.25 11.6667C26.25 10.0091 25.5915 8.41937 24.4194 7.24727C23.2473 6.07517 21.6576 5.41669 20 5.41669ZM16.25 11.6667C16.25 10.6721 16.6451 9.7183 17.3483 9.01504C18.0516 8.31178 19.0054 7.91669 20 7.91669C20.9945 7.91669 21.9484 8.31178 22.6516 9.01504C23.3549 9.7183 23.75 10.6721 23.75 11.6667C23.75 12.6612 23.3549 13.6151 22.6516 14.3183C21.9484 15.0216 20.9945 15.4167 20 15.4167C19.0054 15.4167 18.0516 15.0216 17.3483 14.3183C16.6451 13.6151 16.25 12.6612 16.25 11.6667ZM25.3916 19.025C24.375 18.7367 23.4133 19.0817 22.755 19.52C22.155 19.9167 21.185 20.3934 20 20.3934C18.815 20.3934 17.8433 19.9167 17.245 19.52C16.585 19.0817 15.6233 18.7367 14.6066 19.025C14.34 19.1001 14.0749 19.1806 13.8116 19.2667L12.2116 19.7917C11.2177 20.1148 10.3215 20.6839 9.60645 21.4462C8.89139 22.2085 8.38063 23.1391 8.12165 24.1517L8.10498 24.2184L7.42498 29.135C7.15665 31.075 8.19498 33.1234 10.3316 33.6317C12.2816 34.0967 15.4183 34.5834 19.9983 34.5834C24.58 34.5834 27.7166 34.0967 29.6666 33.6334C31.8033 33.1234 32.8433 31.075 32.5733 29.1367L31.8933 24.22L31.8766 24.1534C31.6178 23.1403 31.1069 22.2092 30.3915 21.4466C29.6761 20.684 28.7795 20.1147 27.785 19.7917L26.1866 19.2667C25.9233 19.1811 25.6583 19.1 25.3916 19.0234M24.1366 21.6C24.4266 21.4084 24.6333 21.405 24.7116 21.4284C24.945 21.495 25.1766 21.5656 25.4066 21.64L27.0066 22.165C28.2066 22.56 29.1133 23.5184 29.4366 24.7034L30.0983 29.4767C30.2233 30.3834 29.7483 31.0417 29.0883 31.1984C27.3433 31.615 24.4016 32.0817 20 32.0817C15.5983 32.0817 12.655 31.615 10.91 31.1984C10.2516 31.0417 9.77665 30.3834 9.89998 29.4767L10.5616 24.7034C10.7263 24.1128 11.0345 23.5721 11.4588 23.1295C11.883 22.6869 12.4102 22.3561 12.9933 22.1667L14.5933 21.6417C14.8222 21.5661 15.0533 21.4956 15.2866 21.43C15.3666 21.4067 15.57 21.41 15.8616 21.6017C16.6966 22.1567 18.1483 22.8934 20 22.8934C21.8516 22.8934 23.3 22.1567 24.1366 21.6017" fill="#2F4D95"/>
</svg>
