<svg width="35" height="36" viewBox="0 0 35 36" fill="none" xmlns="http://www.w3.org/2000/svg">
<path d="M13.125 22.254V23.1042C13.125 24.8447 13.8164 26.5139 15.0471 27.7446C16.2778 28.9753 17.947 29.6667 19.6875 29.6667C21.428 29.6667 23.0972 28.9753 24.3279 27.7446C25.5586 26.5139 26.25 24.8447 26.25 23.1042V20.6688C25.2766 20.3247 24.4561 19.6476 23.9337 18.7572C23.4112 17.8667 23.2204 16.8202 23.3949 15.8026C23.5694 14.785 24.0981 13.8619 24.8874 13.1965C25.6767 12.531 26.6759 12.166 27.7084 12.166C28.7408 12.166 29.74 12.531 30.5293 13.1965C31.3186 13.8619 31.8473 14.785 32.0218 15.8026C32.1964 16.8202 32.0055 17.8667 31.483 18.7572C30.9606 19.6476 30.1401 20.3247 29.1667 20.6688V23.1042C29.1667 25.6182 28.168 28.0293 26.3903 29.807C24.6126 31.5847 22.2016 32.5834 19.6875 32.5834C17.1735 32.5834 14.7624 31.5847 12.9847 29.807C11.207 28.0293 10.2084 25.6182 10.2084 23.1042V22.254C8.16924 21.9093 6.31812 20.8535 4.98333 19.2739C3.64854 17.6944 2.91637 15.6931 2.91669 13.625V6.33335C2.91669 5.55981 3.22398 4.81794 3.77096 4.27096C4.31794 3.72398 5.05981 3.41669 5.83335 3.41669H7.29169C7.67846 3.41669 8.04939 3.57033 8.32288 3.84382C8.59637 4.11731 8.75002 4.48825 8.75002 4.87502C8.75002 5.26179 8.59637 5.63273 8.32288 5.90622C8.04939 6.17971 7.67846 6.33335 7.29169 6.33335H5.83335V13.625C5.83335 15.1721 6.44794 16.6558 7.5419 17.7498C8.63586 18.8438 10.1196 19.4584 11.6667 19.4584C13.2138 19.4584 14.6975 18.8438 15.7915 17.7498C16.8854 16.6558 17.5 15.1721 17.5 13.625V6.33335H16.0417C15.6549 6.33335 15.284 6.17971 15.0105 5.90622C14.737 5.63273 14.5834 5.26179 14.5834 4.87502C14.5834 4.48825 14.737 4.11731 15.0105 3.84382C15.284 3.57033 15.6549 3.41669 16.0417 3.41669H17.5C18.2736 3.41669 19.0154 3.72398 19.5624 4.27096C20.1094 4.81794 20.4167 5.55981 20.4167 6.33335V13.625C20.417 15.6931 19.6848 17.6944 18.35 19.2739C17.0153 20.8535 15.1641 21.9093 13.125 22.254ZM27.7084 18C28.0951 18 28.4661 17.8464 28.7396 17.5729C29.013 17.2994 29.1667 16.9285 29.1667 16.5417C29.1667 16.1549 29.013 15.784 28.7396 15.5105C28.4661 15.237 28.0951 15.0834 27.7084 15.0834C27.3216 15.0834 26.9506 15.237 26.6772 15.5105C26.4037 15.784 26.25 16.1549 26.25 16.5417C26.25 16.9285 26.4037 17.2994 26.6772 17.5729C26.9506 17.8464 27.3216 18 27.7084 18Z" fill="#2F4D95"/>
</svg>
