<svg width="41" height="40" viewBox="0 0 41 40" fill="none" xmlns="http://www.w3.org/2000/svg">
<path d="M17.9167 25.8334C18.5834 26.5 19.4445 26.8267 20.5 26.8134C21.5556 26.8 22.3334 26.4178 22.8334 25.6667L32.1667 11.6667L18.1667 21C17.4167 21.5 17.0212 22.2639 16.98 23.2917C16.9389 24.3195 17.2512 25.1667 17.9167 25.8334ZM20.5 6.66669C22.1389 6.66669 23.7156 6.89558 25.23 7.35335C26.7445 7.81113 28.1678 8.49891 29.5 9.41669L26.3334 11.4167C25.4167 10.9445 24.4656 10.5906 23.48 10.355C22.4945 10.1195 21.5012 10.0011 20.5 10C16.8056 10 13.6595 11.2989 11.0617 13.8967C8.46393 16.4945 7.1656 19.64 7.16671 23.3334C7.16671 24.5 7.32671 25.6528 7.64671 26.7917C7.96671 27.9306 8.41782 29 9.00004 30H32C32.6389 28.9445 33.1045 27.8472 33.3967 26.7084C33.6889 25.5695 33.8345 24.3889 33.8334 23.1667C33.8334 22.1667 33.715 21.1945 33.4784 20.25C33.2417 19.3056 32.8878 18.3889 32.4167 17.5L34.4167 14.3334C35.25 15.6389 35.91 17.0278 36.3967 18.5C36.8834 19.9722 37.14 21.5 37.1667 23.0834C37.1934 24.6667 37.0128 26.1806 36.625 27.625C36.2373 29.0695 35.6678 30.4445 34.9167 31.75C34.6112 32.25 34.1945 32.6389 33.6667 32.9167C33.1389 33.1945 32.5834 33.3334 32 33.3334H9.00004C8.41671 33.3334 7.86115 33.1945 7.33337 32.9167C6.8056 32.6389 6.38893 32.25 6.08337 31.75C5.36115 30.5 4.8056 29.1739 4.41671 27.7717C4.02782 26.3695 3.83337 24.89 3.83337 23.3334C3.83337 21.0278 4.27115 18.8684 5.14671 16.855C6.02226 14.8417 7.21671 13.0778 8.73004 11.5634C10.2434 10.0489 12.0139 8.85447 14.0417 7.98002C16.0695 7.10558 18.2223 6.6678 20.5 6.66669Z" fill="#2F4D95"/>
</svg>
