<svg width="36" height="31" viewBox="0 0 36 31" fill="none" xmlns="http://www.w3.org/2000/svg">
<path d="M8.521 16.7334V27.9834H27.4793V16.7334L18.0002 8.6084L8.521 16.7334Z" stroke="black" stroke-width="2" stroke-linejoin="round"/>
<path d="M3.11489 13.9744C2.9756 14.0897 2.8645 14.2276 2.78808 14.3801C2.71165 14.5326 2.67142 14.6967 2.66973 14.8626C2.66805 15.0286 2.70495 15.1932 2.77827 15.3468C2.8516 15.5004 2.95989 15.64 3.09681 15.7574C3.23374 15.8747 3.39657 15.9676 3.57579 16.0304C3.75501 16.0933 3.94705 16.1249 4.14068 16.1234C4.33432 16.122 4.52568 16.0875 4.7036 16.022C4.88153 15.9565 5.04245 15.8613 5.17697 15.7419L3.11489 13.9744ZM18.0001 2.98313L19.0311 2.09938C18.7577 1.86504 18.3868 1.7334 18.0001 1.7334C17.6134 1.7334 17.2425 1.86504 16.9691 2.09938L18.0001 2.98313ZM30.8232 15.7419C30.9578 15.8613 31.1187 15.9565 31.2966 16.022C31.4745 16.0875 31.6659 16.122 31.8595 16.1234C32.0532 16.1249 32.2452 16.0933 32.4244 16.0304C32.6036 15.9676 32.7665 15.8747 32.9034 15.7574C33.0403 15.64 33.1486 15.5004 33.2219 15.3468C33.2952 15.1932 33.3321 15.0286 33.3305 14.8626C33.3288 14.6967 33.2886 14.5326 33.2121 14.3801C33.1357 14.2276 33.0246 14.0897 32.8853 13.9744L30.8232 15.7419ZM5.17697 15.7419L19.0311 3.86688L16.9691 2.09938L3.11489 13.9744L5.17697 15.7419ZM16.9691 3.86688L30.8232 15.7419L32.8853 13.9744L19.0311 2.09938L16.9691 3.86688Z" fill="black"/>
<path d="M14.3542 19.8584H21.6459M18.0001 16.7334V22.9834" stroke="black" stroke-width="2" stroke-linecap="round" stroke-linejoin="round"/>
</svg>
