<svg width="30" height="31" viewBox="0 0 30 31" fill="none" xmlns="http://www.w3.org/2000/svg">
<path d="M3.75 12.0088V22.0088C3.75 22.6718 4.01339 23.3077 4.48223 23.7766C4.95107 24.2454 5.58696 24.5088 6.25 24.5088H13.75M3.75 12.0088V9.50879C3.75 8.84575 4.01339 8.20986 4.48223 7.74102C4.95107 7.27218 5.58696 7.00879 6.25 7.00879H23.75C24.413 7.00879 25.0489 7.27218 25.5178 7.74102C25.9866 8.20986 26.25 8.84575 26.25 9.50879V12.0088M3.75 12.0088H26.25M26.25 12.0088V15.7588M8.75 17.0088H15M22.5 19.5088V23.2588M22.5 23.2588V27.0088M22.5 23.2588H18.75M22.5 23.2588H26.25" stroke="white" stroke-width="2" stroke-linecap="round" stroke-linejoin="round"/>
</svg>
