<svg width="30" height="31" viewBox="0 0 30 31" fill="none" xmlns="http://www.w3.org/2000/svg">
<path d="M15 15.1338H6.25V13.8838H15V15.1338ZM6.25 12.6338H15V11.3838H6.25V12.6338ZM15 17.6338H6.25V16.3838H15V17.6338ZM6.25 20.1338H15V18.8838H6.25V20.1338ZM17.5 17.9088C17.4999 17.7238 17.5409 17.5411 17.62 17.3739C17.6991 17.2067 17.8143 17.0591 17.9573 16.9418C18.1003 16.8245 18.2675 16.7404 18.447 16.6956C18.6265 16.6507 18.8136 16.6463 18.995 16.6825L20.38 16.96C20.5417 16.9924 20.7083 16.9924 20.87 16.96L22.255 16.6825C22.4364 16.6463 22.6235 16.6507 22.803 16.6956C22.9825 16.7404 23.1497 16.8245 23.2927 16.9418C23.4357 17.0591 23.5509 17.2067 23.63 17.3739C23.7091 17.5411 23.7501 17.7238 23.75 17.9088V20.7588H17.5V17.9088ZM20.625 15.7588C21.288 15.7588 21.9239 15.4954 22.3928 15.0266C22.8616 14.5577 23.125 13.9218 23.125 13.2588C23.125 12.5957 22.8616 11.9599 22.3928 11.491C21.9239 11.0222 21.288 10.7588 20.625 10.7588C19.962 10.7588 19.3261 11.0222 18.8572 11.491C18.3884 11.9599 18.125 12.5957 18.125 13.2588C18.125 13.9218 18.3884 14.5577 18.8572 15.0266C19.3261 15.4954 19.962 15.7588 20.625 15.7588Z" fill="white"/>
<path fill-rule="evenodd" clip-rule="evenodd" d="M4.375 7.00879C3.87772 7.00879 3.40081 7.20633 3.04917 7.55796C2.69754 7.90959 2.5 8.38651 2.5 8.88379V22.6338C2.5 23.1311 2.69754 23.608 3.04917 23.9596C3.40081 24.3112 3.87772 24.5088 4.375 24.5088H25.625C26.1223 24.5088 26.5992 24.3112 26.9508 23.9596C27.3025 23.608 27.5 23.1311 27.5 22.6338V8.88379C27.5 8.38651 27.3025 7.90959 26.9508 7.55796C26.5992 7.20633 26.1223 7.00879 25.625 7.00879H4.375ZM25.625 8.25879H4.375C4.20924 8.25879 4.05027 8.32464 3.93306 8.44185C3.81585 8.55906 3.75 8.71803 3.75 8.88379V22.6338C3.75 22.7995 3.81585 22.9585 3.93306 23.0757C4.05027 23.1929 4.20924 23.2588 4.375 23.2588H25.625C25.7908 23.2588 25.9497 23.1929 26.0669 23.0757C26.1842 22.9585 26.25 22.7995 26.25 22.6338V8.88379C26.25 8.71803 26.1842 8.55906 26.0669 8.44185C25.9497 8.32464 25.7908 8.25879 25.625 8.25879Z" fill="white"/>
</svg>
