<svg width="30" height="31" viewBox="0 0 30 31" fill="none" xmlns="http://www.w3.org/2000/svg">
<path d="M22.4389 9.86575H24.5368L24.7789 9.5786C24.9373 9.38995 25.0569 9.17194 25.131 8.93704C25.205 8.70214 25.2321 8.45495 25.2106 8.20959C25.1891 7.96422 25.1195 7.7255 25.0057 7.50705C24.8919 7.28861 24.7362 7.09472 24.5475 6.93646L19.6232 2.80503C19.4346 2.64669 19.2166 2.52707 18.9817 2.453C18.7468 2.37893 18.4996 2.35187 18.2542 2.37336C18.0088 2.39485 17.7701 2.46448 17.5517 2.57825C17.3332 2.69203 17.1393 2.84773 16.9811 3.03646L11.25 9.86575H13.3479L18.2122 4.06932C18.2578 4.01493 18.3231 3.98089 18.3938 3.97466C18.4646 3.96843 18.5349 3.99053 18.5893 4.0361L19.5429 4.83432L15.3214 9.86575H17.4182L20.7729 5.86825L23.5147 8.16753C23.5689 8.21331 23.6027 8.27874 23.6087 8.34945C23.6148 8.42017 23.5925 8.49038 23.5468 8.54468L22.4389 9.86575ZM20.0893 18.4372C19.8762 18.4372 19.6718 18.5218 19.5211 18.6725C19.3704 18.8232 19.2857 19.0276 19.2857 19.2407C19.2857 19.4539 19.3704 19.6583 19.5211 19.809C19.6718 19.9597 19.8762 20.0443 20.0893 20.0443H22.7679C22.981 20.0443 23.1854 19.9597 23.3361 19.809C23.4868 19.6583 23.5714 19.4539 23.5714 19.2407C23.5714 19.0276 23.4868 18.8232 23.3361 18.6725C23.1854 18.5218 22.981 18.4372 22.7679 18.4372H20.0893ZM5.89287 7.18717H12.0964L10.7464 8.79432H5.89287C5.60871 8.79432 5.33618 8.9072 5.13525 9.10813C4.93432 9.30906 4.82144 9.58159 4.82144 9.86575C4.82144 10.1499 4.93432 10.4224 5.13525 10.6234C5.33618 10.8243 5.60871 10.9372 5.89287 10.9372H22.7679C23.8335 10.9372 24.8554 11.3605 25.6089 12.114C26.3624 12.8675 26.7857 13.8894 26.7857 14.955V23.5265C26.7857 24.5921 26.3624 25.614 25.6089 26.3675C24.8554 27.121 23.8335 27.5443 22.7679 27.5443H7.23215C6.16655 27.5443 5.14459 27.121 4.3911 26.3675C3.6376 25.614 3.21429 24.5921 3.21429 23.5265V9.86575C3.21429 9.15535 3.4965 8.47404 3.99883 7.97171C4.50116 7.46938 5.18246 7.18717 5.89287 7.18717ZM4.82144 12.3215V23.5265C4.82144 24.1658 5.07542 24.779 5.52752 25.2311C5.97962 25.6832 6.59279 25.9372 7.23215 25.9372H22.7679C23.4072 25.9372 24.0204 25.6832 24.4725 25.2311C24.9246 24.779 25.1786 24.1658 25.1786 23.5265V14.955C25.1786 14.3157 24.9246 13.7025 24.4725 13.2504C24.0204 12.7983 23.4072 12.5443 22.7679 12.5443H5.89287C5.51144 12.5443 5.14929 12.465 4.82144 12.3215Z" fill="white"/>
</svg>
