<svg width="31" height="31" viewBox="0 0 31 31" fill="none" xmlns="http://www.w3.org/2000/svg">
<path fill-rule="evenodd" clip-rule="evenodd" d="M12.93 4.82129H18.07C20.3675 4.82129 22.1875 4.82129 23.6113 5.01254C25.0763 5.21004 26.2625 5.62504 27.1988 6.56004C28.1338 7.49629 28.5488 8.68254 28.7463 10.1475C28.8588 10.9888 28.905 11.9675 28.9238 13.1013C28.9393 13.1964 28.941 13.2932 28.9288 13.3888C28.9363 14.0955 28.9392 14.8621 28.9375 15.6888V15.8288C28.9375 18.1263 28.9375 19.9463 28.7463 21.37C28.5488 22.835 28.1338 24.0213 27.1988 24.9575C26.2625 25.8925 25.0763 26.3075 23.6113 26.505C22.1863 26.6963 20.3675 26.6963 18.07 26.6963H12.93C10.6325 26.6963 8.81253 26.6963 7.38878 26.505C5.92378 26.3075 4.73753 25.8925 3.80128 24.9575C2.86628 24.0213 2.45128 22.835 2.25378 21.37C2.06253 19.945 2.06253 18.1263 2.06253 15.8288V15.6888C2.06086 14.8621 2.06378 14.0955 2.07128 13.3888C2.05867 13.2933 2.05993 13.1964 2.07503 13.1013C2.09503 11.9675 2.14128 10.9888 2.25378 10.1475C2.45128 8.68254 2.86628 7.49629 3.80128 6.56004C4.73753 5.62504 5.92378 5.21004 7.38878 5.01254C8.81378 4.82129 10.6325 4.82129 12.93 4.82129ZM3.94003 14.1963C3.93836 14.6813 3.93753 15.2021 3.93753 15.7588C3.93753 18.1425 3.94003 19.8363 4.11253 21.1213C4.28128 22.3775 4.59878 23.1025 5.12753 23.6313C5.65628 24.16 6.38128 24.4775 7.63878 24.6463C8.92378 24.8188 10.6163 24.8213 13 24.8213H18C20.3838 24.8213 22.0775 24.8188 23.3625 24.6463C24.6188 24.4775 25.3438 24.16 25.8725 23.6313C26.4013 23.1025 26.7188 22.3775 26.8875 21.12C27.06 19.835 27.0625 18.1425 27.0625 15.7588C27.0625 15.2021 27.0617 14.6813 27.06 14.1963H3.94003ZM27.03 12.3213H3.97003C3.99503 11.5875 4.03753 10.9538 4.11253 10.3963C4.28128 9.14004 4.59878 8.41504 5.12753 7.88629C5.65628 7.35754 6.38128 7.04004 7.63878 6.87129C8.92378 6.69879 10.6163 6.69629 13 6.69629H18C20.3838 6.69629 22.0775 6.69879 23.3625 6.87129C24.6188 7.04004 25.3438 7.35754 25.8725 7.88629C26.4013 8.41504 26.7188 9.14004 26.8875 10.3975C26.9625 10.9538 27.005 11.5875 27.03 12.3213ZM7.06253 20.7588C7.06253 20.5101 7.1613 20.2717 7.33711 20.0959C7.51293 19.9201 7.75139 19.8213 8.00003 19.8213H13C13.2487 19.8213 13.4871 19.9201 13.6629 20.0959C13.8388 20.2717 13.9375 20.5101 13.9375 20.7588C13.9375 21.0074 13.8388 21.2459 13.6629 21.4217C13.4871 21.5975 13.2487 21.6963 13 21.6963H8.00003C7.75139 21.6963 7.51293 21.5975 7.33711 21.4217C7.1613 21.2459 7.06253 21.0074 7.06253 20.7588ZM15.1875 20.7588C15.1875 20.5101 15.2863 20.2717 15.4621 20.0959C15.6379 19.9201 15.8764 19.8213 16.125 19.8213H18C18.2487 19.8213 18.4871 19.9201 18.6629 20.0959C18.8388 20.2717 18.9375 20.5101 18.9375 20.7588C18.9375 21.0074 18.8388 21.2459 18.6629 21.4217C18.4871 21.5975 18.2487 21.6963 18 21.6963H16.125C15.8764 21.6963 15.6379 21.5975 15.4621 21.4217C15.2863 21.2459 15.1875 21.0074 15.1875 20.7588Z" fill="white"/>
</svg>
