<svg width="24" height="25" viewBox="0 0 24 25" fill="none" xmlns="http://www.w3.org/2000/svg">
<path d="M16.4631 9.346L15.3731 16.325C15.358 16.4212 15.3193 16.5122 15.2605 16.5898C15.2016 16.6673 15.1244 16.7291 15.0357 16.7694C14.9471 16.8098 14.8498 16.8275 14.7527 16.8209C14.6555 16.8144 14.5615 16.7838 14.4791 16.732L10.8291 14.445C10.7532 14.3975 10.6892 14.3334 10.6418 14.2574C10.5945 14.1815 10.5652 14.0957 10.556 14.0067C10.5468 13.9177 10.5581 13.8278 10.589 13.7438C10.6198 13.6598 10.6694 13.5839 10.7341 13.522L13.7641 10.618C13.7981 10.586 13.7581 10.533 13.7181 10.557L9.32605 13.185C9.065 13.342 8.75499 13.3965 8.45605 13.338L6.86605 13.031C6.29205 12.92 6.21305 12.132 6.75205 11.909L15.2541 8.394C15.3989 8.33374 15.5572 8.31319 15.7126 8.33449C15.868 8.35579 16.0149 8.41815 16.1382 8.51515C16.2615 8.61215 16.3567 8.74028 16.414 8.88632C16.4713 9.03237 16.4885 9.19105 16.4641 9.346" fill="#2F4D95"/>
<path fill-rule="evenodd" clip-rule="evenodd" d="M12.0001 2.206C6.31505 2.206 1.70605 6.815 1.70605 12.5C1.70605 18.185 6.31505 22.794 12.0001 22.794C17.6851 22.794 22.2941 18.185 22.2941 12.5C22.2941 6.815 17.6851 2.206 12.0001 2.206ZM3.47005 12.5C3.47005 11.3798 3.69069 10.2706 4.11936 9.23571C4.54803 8.2008 5.17635 7.26046 5.96843 6.46838C6.76052 5.6763 7.70086 5.04798 8.73576 4.61931C9.77067 4.19064 10.8799 3.97 12.0001 3.97C13.1202 3.97 14.2294 4.19064 15.2643 4.61931C16.2993 5.04798 17.2396 5.6763 18.0317 6.46838C18.8238 7.26046 19.4521 8.2008 19.8807 9.23571C20.3094 10.2706 20.5301 11.3798 20.5301 12.5C20.5301 14.7623 19.6314 16.9319 18.0317 18.5316C16.432 20.1313 14.2624 21.03 12.0001 21.03C9.73776 21.03 7.56812 20.1313 5.96843 18.5316C4.36875 16.9319 3.47005 14.7623 3.47005 12.5Z" fill="#2F4D95"/>
</svg>
