<svg width="96" height="59" viewBox="0 0 96 59" fill="none" xmlns="http://www.w3.org/2000/svg">
<g clip-path="url(#clip0_1_154)">
<path d="M93.4019 9.43799C92.857 7.68947 91.7941 6.0954 90.319 4.81451C88.8439 3.53363 87.0081 2.61062 84.9944 2.1374C77.6223 0.391602 47.9518 0.391602 47.9518 0.391602C47.9518 0.391602 18.2799 0.444446 10.9078 2.19025C8.89403 2.66349 7.0582 3.58655 5.58311 4.8675C4.10801 6.14844 3.04511 7.74258 2.50027 9.49116C0.270364 20.865 -0.594655 38.196 2.5615 49.1148C3.1064 50.8633 4.16932 52.4574 5.64441 53.7383C7.11951 55.0192 8.9553 55.9422 10.969 56.4154C18.3411 58.1612 48.0123 58.1612 48.0123 58.1612C48.0123 58.1612 77.6831 58.1612 85.0549 56.4154C87.0687 55.9422 88.9045 55.0193 90.3797 53.7384C91.8549 52.4575 92.9178 50.8634 93.4628 49.1148C95.8148 37.7249 96.5395 20.4045 93.4019 9.43799Z" fill="#FF0000"/>
<path d="M38.5078 41.6557L63.1217 29.2766L38.5078 16.8975V41.6557Z" fill="white"/>
</g>
<defs>
<clipPath id="clip0_1_154">
<rect width="95" height="58" fill="white" transform="translate(0.5 0.391602)"/>
</clipPath>
</defs>
</svg>
