<svg width="55" height="55" viewBox="0 0 55 55" fill="none" xmlns="http://www.w3.org/2000/svg">
<g clip-path="url(#clip0_1_45)">
<path fill-rule="evenodd" clip-rule="evenodd" d="M31.7821 0.33001C31.3999 0.270165 31.0095 0.286202 30.6334 0.377208C30.2573 0.468213 29.9029 0.632403 29.5902 0.860404C29.2776 1.08841 29.0129 1.37575 28.8113 1.70604C28.6098 2.03632 28.4752 2.40308 28.4154 2.78537C28.3555 3.16765 28.3716 3.55799 28.4626 3.93408C28.5536 4.31016 28.7178 4.66465 28.9458 4.97728C29.1738 5.28992 29.4611 5.55458 29.7914 5.75617C30.1217 5.95775 30.4884 6.09231 30.8707 6.15215C36.2303 7.01519 41.0689 9.86334 44.4247 14.1305C47.7805 18.3976 49.4078 23.7712 48.9831 29.1832C48.5585 34.5952 46.1129 39.6492 42.1326 43.3407C38.1522 47.0321 32.9286 49.0907 27.5 49.1072C23.1673 49.109 18.9342 47.8083 15.3501 45.3738C11.766 42.9394 8.99664 39.4837 7.40143 35.4554C7.26737 35.0844 7.0602 34.7442 6.79219 34.4548C6.52419 34.1654 6.2008 33.9327 5.84121 33.7706C5.48162 33.6085 5.09315 33.5203 4.69882 33.5111C4.30449 33.502 3.91234 33.5721 3.54561 33.7173C3.17888 33.8625 2.84504 34.0799 2.56388 34.3565C2.28273 34.6332 2.05998 34.9634 1.90884 35.3278C1.75771 35.6921 1.68126 36.0831 1.68404 36.4775C1.68681 36.8719 1.76875 37.2618 1.925 37.6239C4.28515 43.5696 8.64368 48.5067 14.2507 51.586C19.8577 54.6653 26.3626 55.6942 32.6463 54.4956C38.9299 53.297 44.5994 49.9459 48.6792 45.0189C52.759 40.0918 54.9942 33.8969 55 27.5C55.0013 20.9478 52.6631 14.6104 48.4064 9.62919C44.1498 4.64798 38.2544 1.35028 31.7821 0.33001ZM24.2157 2.5968C24.3125 2.97187 24.3345 3.36235 24.2802 3.74591C24.226 4.12946 24.0966 4.49855 23.8996 4.83207C23.7026 5.16558 23.4417 5.45696 23.1319 5.68955C22.8221 5.92213 22.4695 6.09134 22.0943 6.18751C21.1103 6.44135 20.1454 6.76429 19.2068 7.15394C18.8495 7.30252 18.4665 7.37928 18.0796 7.37983C17.6926 7.38038 17.3094 7.30472 16.9517 7.15715C16.594 7.00959 16.2689 6.79302 15.9949 6.51981C15.7209 6.2466 15.5034 5.9221 15.3548 5.56483C15.2062 5.20757 15.1295 4.82453 15.1289 4.4376C15.1284 4.05067 15.204 3.66742 15.3516 3.30973C15.4992 2.95205 15.7157 2.62693 15.9889 2.35293C16.2622 2.07894 16.5867 1.86145 16.9439 1.71287C18.1304 1.21525 19.3587 0.804057 20.6289 0.479295C21.0037 0.383049 21.3938 0.361575 21.7769 0.416102C22.16 0.470628 22.5287 0.600086 22.8617 0.797083C23.1948 0.99408 23.4858 1.25476 23.7181 1.56423C23.9504 1.8737 24.1195 2.22197 24.2157 2.5968ZM12.5125 7.44072C13.056 8.00147 13.3547 8.75504 13.3429 9.53588C13.3311 10.3167 13.0098 11.0609 12.4496 11.605C10.9885 13.0284 9.73242 14.6481 8.7175 16.4175C8.53074 16.7631 8.27677 17.0678 7.97053 17.3138C7.66429 17.5598 7.31195 17.742 6.93425 17.8499C6.55654 17.9577 6.16108 17.9889 5.77113 17.9417C5.38118 17.8944 5.00461 17.7697 4.66357 17.5748C4.32252 17.38 4.02389 17.1188 3.78522 16.8069C3.54656 16.4949 3.37269 16.1383 3.27382 15.7582C3.17496 15.378 3.15311 14.9819 3.20956 14.5932C3.266 14.2045 3.3996 13.831 3.6025 13.4947C4.88805 11.2421 6.48579 9.18281 8.34821 7.37787C8.90896 6.83435 9.66253 6.53568 10.4434 6.54746C11.2242 6.55925 11.9684 6.88053 12.5125 7.44072ZM3.59857 20.7429C4.37211 20.8519 5.07069 21.2637 5.5407 21.8877C6.01071 22.5117 6.21368 23.2968 6.105 24.0704C5.96859 25.0796 5.89773 26.0966 5.89286 27.115C5.89286 27.8965 5.58243 28.6459 5.02987 29.1985C4.47731 29.751 3.72787 30.0614 2.94643 30.0614C2.16499 30.0614 1.41555 29.751 0.862989 29.1985C0.310426 28.6459 0 27.8965 0 27.115C0 25.8055 0.0903571 24.5169 0.271071 23.2493C0.380132 22.4758 0.791921 21.7772 1.4159 21.3072C2.03988 20.8372 2.82498 20.6342 3.59857 20.7429ZM17.6786 34.8936V20.1064C17.6789 19.437 17.8503 18.7788 18.1765 18.1943C18.5027 17.6097 18.9728 17.1182 19.5423 16.7664C20.1117 16.4146 20.7617 16.2141 21.4304 16.1839C22.0991 16.1538 22.7644 16.2951 23.3632 16.5943L38.1504 23.9879C38.802 24.3145 39.35 24.816 39.7329 25.4362C40.1159 26.0565 40.3187 26.7711 40.3187 27.5C40.3187 28.229 40.1159 28.9435 39.7329 29.5638C39.35 30.184 38.802 30.6855 38.1504 31.0122L23.3632 38.4057C22.7644 38.7049 22.0991 38.8462 21.4304 38.8161C20.7617 38.786 20.1117 38.5855 19.5423 38.2336C18.9728 37.8818 18.5027 37.3903 18.1765 36.8057C17.8503 36.2212 17.6789 35.563 17.6786 34.8936Z" fill="#F3E825"/>
</g>
<defs>
<clipPath id="clip0_1_45">
<rect width="55" height="55" fill="white"/>
</clipPath>
</defs>
</svg>
