<svg width="30" height="31" viewBox="0 0 30 31" fill="none" xmlns="http://www.w3.org/2000/svg">
<path d="M6.38875 6.59576C6.4622 6.55904 6.54217 6.53715 6.62409 6.53135C6.706 6.52555 6.78826 6.53594 6.86615 6.56195C6.94405 6.58795 7.01605 6.62905 7.07805 6.68289C7.14006 6.73674 7.19084 6.80228 7.2275 6.87576C7.41063 7.24263 7.52938 7.66326 7.4725 8.11701C7.415 8.57763 7.18625 8.99451 6.81563 9.36576L6.22625 9.95513C6.10563 10.0751 5.92313 10.2414 5.73938 10.4089V10.4095L5.55938 10.5733C5.30375 10.8076 5.0825 11.0183 4.96313 11.1576C4.35898 11.8661 3.96193 12.7275 3.81563 13.647C3.66626 14.5574 3.77495 15.4915 4.12938 16.3433C4.46708 17.16 5.04097 17.8573 5.7775 18.3458C5.97834 18.477 6.18708 18.5899 6.40375 18.6845C6.505 18.7033 6.59813 18.7408 6.6775 18.792C7.165 18.9639 7.68188 19.0433 8.20625 19.0251C9.08805 18.9895 9.93897 18.6906 10.6494 18.167C11.3919 17.6213 11.9669 16.8787 12.3094 16.0233C12.3737 15.8729 12.4945 15.7538 12.6456 15.6914C12.7968 15.6291 12.9664 15.6285 13.1181 15.6897C13.2697 15.751 13.3913 15.8692 13.4567 16.0191C13.5222 16.169 13.5263 16.3385 13.4681 16.4914C13.0382 17.5637 12.3165 18.4943 11.385 19.1776C10.473 19.8481 9.38108 20.2301 8.25 20.2745C7.86187 20.2881 7.4734 20.26 7.09125 20.1908L7.63438 23.6364C7.6825 23.9426 7.41813 24.2251 7.04375 24.2664C6.66875 24.3076 6.32625 24.092 6.27813 23.7851L5.63438 19.7039C5.4481 19.6098 5.26719 19.5055 5.0925 19.3914C4.14773 18.7665 3.41106 17.8738 2.97688 16.8276C2.53212 15.7604 2.39528 14.5899 2.58188 13.4489C2.76436 12.3022 3.2596 11.228 4.01313 10.3445C4.19063 10.1383 4.46938 9.87638 4.71438 9.65201L4.92063 9.46326C5.09563 9.30388 5.24438 9.16951 5.34188 9.07138L5.93125 8.48201C6.15 8.26326 6.21625 8.09076 6.23188 7.96201C6.24938 7.82576 6.22063 7.65701 6.10938 7.43451C6.03536 7.28631 6.02321 7.11478 6.0756 6.95763C6.12799 6.80047 6.24062 6.67054 6.38875 6.59638M24.365 19.7039C24.5515 19.6099 24.7326 19.5055 24.9075 19.3914C25.8523 18.7665 26.5889 17.8738 27.0231 16.8276C27.4679 15.7604 27.6047 14.5899 27.4181 13.4489C27.2356 12.3022 26.7404 11.228 25.9869 10.3445C25.8094 10.1383 25.5306 9.87638 25.2856 9.65201L25.0794 9.46326C24.9044 9.30388 24.7556 9.16951 24.6581 9.07138L24.0688 8.48201C23.85 8.26326 23.7838 8.09076 23.7681 7.96201C23.7506 7.82576 23.7794 7.65701 23.8906 7.43451C23.9632 7.28642 23.9743 7.11565 23.9215 6.95941C23.8687 6.80317 23.7563 6.67413 23.6088 6.60041C23.4612 6.52669 23.2906 6.51427 23.1339 6.56584C22.9773 6.61742 22.8474 6.72882 22.7725 6.87576C22.5894 7.24263 22.4706 7.66326 22.5275 8.11701C22.585 8.57763 22.8138 8.99451 23.1844 9.36576L23.7738 9.95513C23.8944 10.0751 24.0769 10.2414 24.2606 10.4089L24.4406 10.5733C24.6963 10.8076 24.9175 11.0183 25.0369 11.1576C25.641 11.8661 26.0381 12.7275 26.1844 13.647C26.3337 14.5574 26.2251 15.4915 25.8706 16.3433C25.5329 17.16 24.959 17.8573 24.2225 18.3458C24.0221 18.477 23.8133 18.5899 23.5963 18.6845C23.495 18.7033 23.4019 18.7408 23.3225 18.792C22.8322 18.9654 22.3135 19.0445 21.7938 19.0251C20.912 18.9895 20.061 18.6906 19.3506 18.167C18.6081 17.6213 18.0331 16.8787 17.6906 16.0233C17.6611 15.9455 17.6163 15.8745 17.5589 15.8143C17.5016 15.7541 17.4328 15.7059 17.3566 15.6727C17.2804 15.6394 17.1983 15.6217 17.1151 15.6205C17.032 15.6193 16.9494 15.6348 16.8723 15.6659C16.7952 15.6971 16.7251 15.7433 16.6661 15.8019C16.6071 15.8605 16.5604 15.9303 16.5287 16.0071C16.497 16.084 16.4809 16.1664 16.4815 16.2496C16.482 16.3327 16.4992 16.4149 16.5319 16.4914C16.9618 17.5637 17.6835 18.4943 18.615 19.1776C19.5271 19.8481 20.6189 20.2301 21.75 20.2745C22.1381 20.2881 22.5266 20.26 22.9088 20.1908L22.3656 23.6364C22.3175 23.9426 22.5819 24.2251 22.9563 24.2664C23.3313 24.3076 23.6738 24.092 23.7219 23.7851L24.365 19.7039Z" fill="black"/>
<path d="M8.125 16.0833C8.125 16.4148 7.9933 16.7327 7.75888 16.9671C7.52446 17.2016 7.20652 17.3333 6.875 17.3333C6.54348 17.3333 6.22554 17.2016 5.99112 16.9671C5.7567 16.7327 5.625 16.4148 5.625 16.0833C5.625 15.7517 5.7567 15.4338 5.99112 15.1994C6.22554 14.9649 6.54348 14.8333 6.875 14.8333C7.20652 14.8333 7.52446 14.9649 7.75888 15.1994C7.9933 15.4338 8.125 15.7517 8.125 16.0833ZM23.125 17.3333C23.4565 17.3333 23.7745 17.2016 24.0089 16.9671C24.2433 16.7327 24.375 16.4148 24.375 16.0833C24.375 15.7517 24.2433 15.4338 24.0089 15.1994C23.7745 14.9649 23.4565 14.8333 23.125 14.8333C22.7935 14.8333 22.4755 14.9649 22.2411 15.1994C22.0067 15.4338 21.875 15.7517 21.875 16.0833C21.875 16.4148 22.0067 16.7327 22.2411 16.9671C22.4755 17.2016 22.7935 17.3333 23.125 17.3333Z" fill="black"/>
</svg>
