<svg width="25" height="26" viewBox="0 0 25 26" fill="none" xmlns="http://www.w3.org/2000/svg">
<g clip-path="url(#clip0_1_620)">
<path fill-rule="evenodd" clip-rule="evenodd" d="M2.34375 22.3333H23.4375V20.7708H3.125V0.458252H1.5625V21.552L2.34375 22.3333ZM4.6875 18.427V5.927L5.46875 5.14575H8.59375L9.375 5.927V18.427L8.59375 19.2083H5.46875L4.6875 18.427ZM7.8125 17.6458V6.70825H6.25V17.6458H7.8125ZM17.1875 2.802V18.427L17.9688 19.2083H21.0938L21.875 18.427V2.802L21.0938 2.02075H17.9688L17.1875 2.802ZM20.3125 3.58325V17.6458H18.75V3.58325H20.3125ZM10.9375 18.427V9.052L11.7188 8.27075H14.8438L15.625 9.052V18.427L14.8438 19.2083H11.7188L10.9375 18.427ZM14.0625 17.6458V9.83325H12.5V17.6458H14.0625Z" fill="black"/>
</g>
<defs>
<clipPath id="clip0_1_620">
<rect width="25" height="25" fill="white" transform="translate(0 0.458252)"/>
</clipPath>
</defs>
</svg>
