<svg width="25" height="26" viewBox="0 0 25 26" fill="none" xmlns="http://www.w3.org/2000/svg">
<path fill-rule="evenodd" clip-rule="evenodd" d="M13.6719 5.14575C13.3611 5.14575 13.063 5.26922 12.8432 5.48899C12.6235 5.70876 12.5 6.00683 12.5 6.31763C12.5 6.62843 12.6235 6.9265 12.8432 7.14627C13.063 7.36604 13.3611 7.4895 13.6719 7.4895H23.8281C24.1389 7.4895 24.437 7.36604 24.6568 7.14627C24.8765 6.9265 25 6.62843 25 6.31763C25 6.00683 24.8765 5.70876 24.6568 5.48899C24.437 5.26922 24.1389 5.14575 23.8281 5.14575H13.6719ZM13.6719 11.7864C13.3611 11.7864 13.063 11.9098 12.8432 12.1296C12.6235 12.3494 12.5 12.6475 12.5 12.9583C12.5 13.2691 12.6235 13.5671 12.8432 13.7869C13.063 14.0067 13.3611 14.1301 13.6719 14.1301H23.8281C24.1389 14.1301 24.437 14.0067 24.6568 13.7869C24.8765 13.5671 25 13.2691 25 12.9583C25 12.6475 24.8765 12.3494 24.6568 12.1296C24.437 11.9098 24.1389 11.7864 23.8281 11.7864H13.6719ZM12.5 19.5989C12.5 19.2881 12.6235 18.99 12.8432 18.7702C13.063 18.5505 13.3611 18.427 13.6719 18.427H23.8281C24.1389 18.427 24.437 18.5505 24.6568 18.7702C24.8765 18.99 25 19.2881 25 19.5989C25 19.9097 24.8765 20.2077 24.6568 20.4275C24.437 20.6473 24.1389 20.7708 23.8281 20.7708H13.6719C13.3611 20.7708 13.063 20.6473 12.8432 20.4275C12.6235 20.2077 12.5 19.9097 12.5 19.5989ZM9.8125 11.8333C10.0195 11.6111 10.1322 11.3173 10.1268 11.0137C10.1215 10.7101 9.9985 10.4204 9.78379 10.2057C9.56908 9.99101 9.27942 9.86802 8.97582 9.86267C8.67222 9.85731 8.3784 9.97 8.15625 10.177L3.90625 14.427L2 12.5208C1.77786 12.3138 1.48403 12.2011 1.18044 12.2064C0.876842 12.2118 0.587178 12.3348 0.37247 12.5495C0.157762 12.7642 0.034775 13.0538 0.0294184 13.3574C0.0240618 13.661 0.136754 13.9549 0.343754 14.177L3.07813 16.9114C3.29786 17.1308 3.59571 17.2541 3.90625 17.2541C4.2168 17.2541 4.51465 17.1308 4.73438 16.9114L9.8125 11.8333Z" fill="black"/>
</svg>
