<svg width="30" height="31" viewBox="0 0 30 31" fill="none" xmlns="http://www.w3.org/2000/svg">
<path d="M25.8963 16.7834C26.2474 16.4318 26.4446 15.9552 26.4446 15.4584C26.4446 14.9615 26.2474 14.4849 25.8963 14.1334L18.8263 7.0596C18.4745 6.70786 17.9975 6.51025 17.5 6.51025C17.0026 6.51025 16.5255 6.70786 16.1738 7.0596C15.822 7.41135 15.6244 7.88841 15.6244 8.38585C15.6244 8.88329 15.822 9.36036 16.1738 9.7121L20.0438 13.5834L5.62501 13.5834C5.12773 13.5834 4.65082 13.7809 4.29919 14.1325C3.94756 14.4842 3.75001 14.9611 3.75001 15.4584C3.75001 15.9556 3.94756 16.4325 4.29919 16.7842C4.65082 17.1358 5.12773 17.3334 5.62501 17.3334L20.0438 17.3334L16.1738 21.2034C15.9996 21.3775 15.8614 21.5843 15.7672 21.8118C15.6729 22.0394 15.6244 22.2833 15.6244 22.5296C15.6244 22.7759 15.6729 23.0198 15.7672 23.2474C15.8614 23.4749 15.9996 23.6817 16.1738 23.8559C16.3479 24.03 16.5547 24.1682 16.7822 24.2624C17.0098 24.3567 17.2537 24.4052 17.5 24.4052C17.7463 24.4052 17.9902 24.3567 18.2178 24.2624C18.4453 24.1682 18.6521 24.03 18.8263 23.8559L25.8963 16.7834Z" fill="#2F4D95"/>
</svg>
