<svg width="30" height="31" viewBox="0 0 30 31" fill="none" xmlns="http://www.w3.org/2000/svg">
<g clip-path="url(#clip0_1_126)">
<path d="M11.25 14.7539C11.25 14.5053 11.1512 14.2668 10.9754 14.091C10.7996 13.9152 10.5611 13.8164 10.3125 13.8164H8.4375C8.18886 13.8164 7.9504 13.9152 7.77459 14.091C7.59877 14.2668 7.5 14.5053 7.5 14.7539V16.6289C7.5 16.8775 7.59877 17.116 7.77459 17.2918C7.9504 17.4676 8.18886 17.5664 8.4375 17.5664H10.3125C10.5611 17.5664 10.7996 17.4676 10.9754 17.2918C11.1512 17.116 11.25 16.8775 11.25 16.6289V14.7539ZM11.25 20.3789C11.25 20.1303 11.1512 19.8918 10.9754 19.716C10.7996 19.5402 10.5611 19.4414 10.3125 19.4414H8.4375C8.18886 19.4414 7.9504 19.5402 7.77459 19.716C7.59877 19.8918 7.5 20.1303 7.5 20.3789V22.2539C7.5 22.5025 7.59877 22.741 7.77459 22.9168C7.9504 23.0926 8.18886 23.1914 8.4375 23.1914H10.3125C10.5611 23.1914 10.7996 23.0926 10.9754 22.9168C11.1512 22.741 11.25 22.5025 11.25 22.2539V20.3789ZM14.0625 13.8164H15.9375C16.1861 13.8164 16.4246 13.9152 16.6004 14.091C16.7762 14.2668 16.875 14.5053 16.875 14.7539V16.6289C16.875 16.8775 16.7762 17.116 16.6004 17.2918C16.4246 17.4676 16.1861 17.5664 15.9375 17.5664H14.0625C13.8139 17.5664 13.5754 17.4676 13.3996 17.2918C13.2238 17.116 13.125 16.8775 13.125 16.6289V14.7539C13.125 14.5053 13.2238 14.2668 13.3996 14.091C13.5754 13.9152 13.8139 13.8164 14.0625 13.8164ZM15.9375 19.4414H14.0625C13.8139 19.4414 13.5754 19.5402 13.3996 19.716C13.2238 19.8918 13.125 20.1303 13.125 20.3789V22.2539C13.125 22.5025 13.2238 22.741 13.3996 22.9168C13.5754 23.0926 13.8139 23.1914 14.0625 23.1914H15.9375C16.1861 23.1914 16.4246 23.0926 16.6004 22.9168C16.7762 22.741 16.875 22.5025 16.875 22.2539V20.3789C16.875 20.1303 16.7762 19.8918 16.6004 19.716C16.4246 19.5402 16.1861 19.4414 15.9375 19.4414ZM18.75 14.7539C18.75 14.5053 18.8488 14.2668 19.0246 14.091C19.2004 13.9152 19.4389 13.8164 19.6875 13.8164H21.5625C21.8111 13.8164 22.0496 13.9152 22.2254 14.091C22.4012 14.2668 22.5 14.5053 22.5 14.7539V16.6289C22.5 16.8775 22.4012 17.116 22.2254 17.2918C22.0496 17.4676 21.8111 17.5664 21.5625 17.5664H19.6875C19.4389 17.5664 19.2004 17.4676 19.0246 17.2918C18.8488 17.116 18.75 16.8775 18.75 16.6289V14.7539Z" fill="black"/>
<path fill-rule="evenodd" clip-rule="evenodd" d="M8.4375 0.691406C8.68614 0.691406 8.9246 0.790178 9.10041 0.965994C9.27623 1.14181 9.375 1.38027 9.375 1.62891V2.56641H20.625V1.62891C20.625 1.38027 20.7238 1.14181 20.8996 0.965994C21.0754 0.790178 21.3139 0.691406 21.5625 0.691406C21.8111 0.691406 22.0496 0.790178 22.2254 0.965994C22.4012 1.14181 22.5 1.38027 22.5 1.62891V2.56641C25.6125 2.56641 28.125 5.07891 28.125 8.19141V23.1914C28.125 26.3039 25.6125 28.8164 22.5 28.8164H7.5C4.3875 28.8164 1.875 26.3039 1.875 23.1914V8.19141C1.875 5.07891 4.3875 2.56641 7.5 2.56641V1.62891C7.5 1.38027 7.59877 1.14181 7.77459 0.965994C7.9504 0.790178 8.18886 0.691406 8.4375 0.691406ZM26.25 8.19141V10.0664H3.75V8.19141C3.75 6.12891 5.42812 4.44141 7.5 4.44141V5.37891C7.5 5.62755 7.59877 5.866 7.77459 6.04182C7.9504 6.21763 8.18886 6.31641 8.4375 6.31641C8.68614 6.31641 8.9246 6.21763 9.10041 6.04182C9.27623 5.866 9.375 5.62755 9.375 5.37891V4.44141H20.625V5.37891C20.625 5.62755 20.7238 5.866 20.8996 6.04182C21.0754 6.21763 21.3139 6.31641 21.5625 6.31641C21.8111 6.31641 22.0496 6.21763 22.2254 6.04182C22.4012 5.866 22.5 5.62755 22.5 5.37891V4.44141C24.5625 4.44141 26.25 6.11953 26.25 8.19141ZM3.75 23.1914V11.9414H26.25V23.1914C26.25 25.2539 24.5719 26.9414 22.5 26.9414H7.5C5.4375 26.9414 3.75 25.2633 3.75 23.1914Z" fill="black"/>
</g>
<defs>
<clipPath id="clip0_1_126">
<rect width="30" height="30" fill="white" transform="translate(0 0.824219)"/>
</clipPath>
</defs>
</svg>
