<svg width="30" height="31" viewBox="0 0 30 31" fill="none" xmlns="http://www.w3.org/2000/svg">
<path d="M4.34025 20.5815H25.6595C28.2588 20.5815 29.552 19.3135 29.552 16.7522V8.26439C29.552 5.69028 28.2588 4.43457 25.6595 4.43457H4.34025C1.74097 4.43457 0.447754 5.69028 0.447754 8.26439V16.7517C0.447754 19.3135 1.74097 20.5815 4.34025 20.5815ZM4.3649 18.5603C3.12204 18.5603 2.469 17.9324 2.469 16.6515V8.36457C2.469 7.08421 3.12258 6.4435 4.36543 6.4435H25.6338C26.8649 6.4435 27.5303 7.08421 27.5303 8.36457V16.6515C27.5303 17.9319 26.8649 18.5603 25.6338 18.5603H4.3649ZM1.70347 26.9474H4.35258C4.72918 26.9474 5.00561 26.671 5.00561 26.3067V23.6828C5.00561 23.2933 4.74204 23.0174 4.35204 23.0174H1.70347C1.30168 23.0174 1.03758 23.2933 1.03758 23.6828V26.3067C1.03758 26.671 1.314 26.9474 1.70347 26.9474ZM7.69275 26.9474H10.3419C10.7185 26.9474 10.9944 26.671 10.9944 26.3067V23.6828C10.9944 23.2933 10.7308 23.0174 10.3419 23.0174H7.69222C7.29043 23.0174 7.02686 23.2933 7.02686 23.6828V26.3067C7.02686 26.671 7.30382 26.9474 7.69275 26.9474ZM13.681 26.9474H16.3301C16.7067 26.9474 16.9836 26.671 16.9836 26.3067V23.6828C16.9836 23.2933 16.7195 23.0174 16.3301 23.0174H13.682C13.2803 23.0174 13.0167 23.2933 13.0167 23.6828V26.3067C13.0167 26.671 13.2926 26.9474 13.682 26.9474M19.6713 26.9474H22.3204C22.697 26.9474 22.9735 26.671 22.9735 26.3067V23.6828C22.9735 23.2933 22.7099 23.0174 22.3204 23.0174H19.6713C19.2695 23.0174 19.006 23.2933 19.006 23.6828V26.3067C19.006 26.671 19.2819 26.9474 19.6713 26.9474ZM25.6606 26.9474H28.3097C28.6863 26.9474 28.9622 26.671 28.9622 26.3067V23.6828C28.9622 23.2933 28.6986 23.0174 28.3097 23.0174H25.6601C25.2583 23.0174 24.9947 23.2933 24.9947 23.6828V26.3067C24.9947 26.671 25.2711 26.9474 25.6601 26.9474" fill="black"/>
</svg>
