<svg width="30" height="31" viewBox="0 0 30 31" fill="none" xmlns="http://www.w3.org/2000/svg">
<path d="M17.5 18.5064V21.1189C16.3687 20.7189 15.1578 20.5962 13.9693 20.7611C12.7807 20.9261 11.649 21.3738 10.6693 22.0667C9.68958 22.7596 8.89043 23.6774 8.33895 24.7432C7.78748 25.8089 7.49977 26.9914 7.5 28.1914H5C4.99942 26.6649 5.34832 25.1585 6.01996 23.7877C6.6916 22.4169 7.66815 21.2181 8.87478 20.2831C10.0814 19.3481 11.4861 18.7017 12.9811 18.3935C14.4762 18.0853 16.022 18.1248 17.5 18.5064ZM15 16.9414C10.8563 16.9414 7.5 13.5852 7.5 9.44141C7.5 5.29766 10.8563 1.94141 15 1.94141C19.1438 1.94141 22.5 5.29766 22.5 9.44141C22.5 13.5852 19.1438 16.9414 15 16.9414ZM15 14.4414C17.7625 14.4414 20 12.2039 20 9.44141C20 6.67891 17.7625 4.44141 15 4.44141C12.2375 4.44141 10 6.67891 10 9.44141C10 12.2039 12.2375 14.4414 15 14.4414ZM22.5 21.9414V18.1914H25V21.9414H28.75V24.4414H25V28.1914H22.5V24.4414H18.75V21.9414H22.5Z" fill="black"/>
</svg>
