<svg width="35" height="36" viewBox="0 0 35 36" fill="none" xmlns="http://www.w3.org/2000/svg">
<path d="M14.5833 7.6831L2.91665 7.6831L2.91665 10.5998L14.5833 10.5998L14.5833 7.6831ZM14.5833 15.7039L2.91665 15.7039L2.91665 18.6206L14.5833 18.6206L14.5833 15.7039ZM14.5833 23.7248L2.91665 23.7248L2.91665 26.6414L14.5833 26.6414L14.5833 23.7248ZM32.0833 17.1623C32.0833 22.3831 27.825 26.6414 22.6041 26.6414L21.875 26.6414L21.875 29.5581L17.5 25.1831L21.875 20.8081L21.875 23.7248L22.6041 23.7248C26.2208 23.7248 29.1666 20.7789 29.1666 17.1623C29.1666 13.5456 26.2208 10.5998 22.6041 10.5998L17.5 10.5998L17.5 7.6831L22.6041 7.6831C27.825 7.68311 32.0833 11.9414 32.0833 17.1623Z" fill="black"/>
</svg>
