<svg width="36" height="36" viewBox="0 0 36 36" fill="none" xmlns="http://www.w3.org/2000/svg">
<path d="M15.0834 28.1001L3.41671 28.1001L3.41671 25.1834L15.0834 25.1834L15.0834 28.1001ZM15.0834 20.0793L3.41671 20.0793L3.41671 17.1626L15.0834 17.1626L15.0834 20.0793ZM15.0834 12.0584L3.41671 12.0584L3.41671 9.14176L15.0834 9.14176L15.0834 12.0584ZM32.5834 18.6209C32.5834 13.4001 28.325 9.14176 23.1042 9.14176L22.375 9.14176L22.375 6.2251L18 10.6001L22.375 14.9751L22.375 12.0584L23.1042 12.0584C26.7209 12.0584 29.6667 15.0043 29.6667 18.6209C29.6667 22.2376 26.7209 25.1834 23.1042 25.1834L18 25.1834L18 28.1001L23.1042 28.1001C28.325 28.1001 32.5834 23.8418 32.5834 18.6209Z" fill="black"/>
</svg>
